{
    "asset" : {
        "generator" : "Khronos glTF Blender I/O v1.1.46",
        "version" : "2.0"
    },
    "scene" : 0,
    "scenes" : [
        {
            "name" : "Scene",
            "nodes" : [
                0
            ]
        }
    ],
    "nodes" : [
        {
            "mesh" : 0,
            "name" : "Full Grow.004",
            "translation" : [
                2.8596549034118652,
                0,
                40.06251525878906
            ]
        }
    ],
    "materials" : [
        {
            "alphaCutoff" : 0.5,
            "alphaMode" : "MASK",
            "doubleSided" : true,
            "emissiveFactor" : [
                0,
                0,
                0
            ],
            "name" : "Oak",
            "pbrMetallicRoughness" : {
                "baseColorTexture" : {
                    "index" : 0,
                    "texCoord" : 0
                },
                "metallicFactor" : 0,
                "roughnessFactor" : 0.8727272748947144
            }
        }
    ],
    "meshes" : [
        {
            "name" : "Cylinder.040",
            "primitives" : [
                {
                    "attributes" : {
                        "POSITION" : 0,
                        "NORMAL" : 1,
                        "TEXCOORD_0" : 2
                    },
                    "indices" : 3,
                    "material" : 0
                }
            ]
        }
    ],
    "textures" : [
        {
            "source" : 0
        }
    ],
    "images" : [
        {
            "bufferView" : 4,
            "mimeType" : "image/png",
            "name" : "oak"
        }
    ],
    "accessors" : [
        {
            "bufferView" : 0,
            "componentType" : 5126,
            "count" : 6153,
            "max" : [
                7.377424716949463,
                12.498565673828125,
                8.024614334106445
            ],
            "min" : [
                -7.420934200286865,
                0.01002812385559082,
                -6.677068710327148
            ],
            "type" : "VEC3"
        },
        {
            "bufferView" : 1,
            "componentType" : 5126,
            "count" : 6153,
            "type" : "VEC3"
        },
        {
            "bufferView" : 2,
            "componentType" : 5126,
            "count" : 6153,
            "type" : "VEC2"
        },
        {
            "bufferView" : 3,
            "componentType" : 5123,
            "count" : 16560,
            "type" : "SCALAR"
        }
    ],
    "bufferViews" : [
        {
            "buffer" : 0,
            "byteLength" : 73836,
            "byteOffset" : 0
        },
        {
            "buffer" : 0,
            "byteLength" : 73836,
            "byteOffset" : 73836
        },
        {
            "buffer" : 0,
            "byteLength" : 49224,
            "byteOffset" : 147672
        },
        {
            "buffer" : 0,
            "byteLength" : 33120,
            "byteOffset" : 196896
        },
        {
            "buffer" : 0,
            "byteLength" : 1673840,
            "byteOffset" : 230016
        }
    ],
    "buffers" : [
        {
            "byteLength" : 1903856,
            "uri" : "data:application/octet-stream;base64,"
        }
    ]
}
